# xmcd CD database file
#
# Track frame offsets:
#	150
#	14880
#	27285
#	40500
#	52122
#	66077
#	80425
#	98670
#	111285
#	124835
#	145742
#	156727
#	178195
#	196222
#	206422
#	221682
#	232127
#	241725
#	258420
#	271577
#	282972
#	300205
#	312975
#	328250
#	340727
#
# Disc length: 4710 seconds
#
# Revision: 2
# Processed by: cddbd v1.5.1PL0 Copyright (c) Steve Scherf et al.
# Submitted via: CDex 1.51
#
DISCID=6f126419
DTITLE=Merle Haggard - Okie From Muskogee-23 Great Songs
DYEAR=1996
DGENRE=Country
TTITLE0=Twinkle Twinkle Lucky Star
TTITLE1=If You Want To Be My Woman
TTITLE2=Workin' Man Blues
TTITLE3=Always Late With Your Kisses
TTITLE4=TB Blues
TTITLE5=Folsom Prison Blues
TTITLE6=Footlights
TTITLE7=Big City
TTITLE8=Mama Tried
TTITLE9=Brain Cloudy Blues - Milk Cow Blues
TTITLE10=Begging To You
TTITLE11=The Bottle Let Me Down
TTITLE12=What Am I Gonna Do With The Rest Of My Life?
TTITLE13=Ida Red
TTITLE14=San Antonio Rose
TTITLE15=Corrine Corrina
TTITLE16=Take Me Back To Tulsa
TTITLE17=Faded Love
TTITLE18=Fiddle Breakdown
TTITLE19=Right Or Wrong
TTITLE20=Ramblin' Fever
TTITLE21=That's The Way Love Goes
TTITLE22=Today I Started Loving You Again
TTITLE23=Okie From Muskogee
TTITLE24=The Fightin' Side Of Me
EXTD=YEAR: 1996
EXTT0=
EXTT1=
EXTT2=
EXTT3=
EXTT4=
EXTT5=
EXTT6=
EXTT7=
EXTT8=
EXTT9=
EXTT10=
EXTT11=
EXTT12=
EXTT13=
EXTT14=
EXTT15=
EXTT16=
EXTT17=
EXTT18=
EXTT19=
EXTT20=
EXTT21=
EXTT22=
EXTT23=
EXTT24=
PLAYORDER=
